<?xml version="1.0" standalone="no"?>
<!DOCTYPE svg PUBLIC "-//W3C//DTD SVG 20010904//EN"
 "http://www.w3.org/TR/2001/REC-SVG-20010904/DTD/svg10.dtd">
<svg version="1.0" xmlns="http://www.w3.org/2000/svg"
 width="408.000000pt" height="408.000000pt" viewBox="0 0 408.000000 408.000000"
 preserveAspectRatio="xMidYMid meet">
<metadata>
Created by potrace 1.11, written by Peter Selinger 2001-2013
</metadata>
<g transform="translate(0.000000,408.000000) scale(0.100000,-0.100000)"
fill="#000000" stroke="none">
<path d="M2343 2838 c-32 -29 -128 -121 -213 -205 l-154 -153 -146 -1 c-80 -1
-149 0 -155 1 -15 3 -450 0 -673 -5 -280 -6 -344 -16 -467 -72 -113 -51 -238
-180 -303 -312 l-37 -75 -3 -167 c-5 -199 5 -245 78 -358 90 -141 223 -245
365 -287 56 -16 144 -17 1300 -17 1732 0 1922 2 1937 21 10 11 14 137 16 518
l4 503 -48 4 -49 3 48 2 47 2 0 120 0 121 -147 -1 c-82 0 -313 0 -516 0 l-367
0 -163 161 c-186 186 -258 249 -280 249 -8 0 -42 -23 -74 -52z m1360 -605 c-7
-2 -21 -2 -30 0 -10 3 -4 5 12 5 17 0 24 -2 18 -5z m80 0 c-7 -2 -19 -2 -25 0
-7 3 -2 5 12 5 14 0 19 -2 13 -5z"/>
</g>
</svg>
